<svg width="25" height="25" viewBox="0 0 25 25" fill="none" xmlns="http://www.w3.org/2000/svg">
<path fill-rule="evenodd" clip-rule="evenodd" d="M6.09277 4.16787C6.09277 3.8365 6.3614 3.56787 6.69277 3.56787H14.6928C14.8519 3.56787 15.0045 3.63109 15.117 3.74361L19.617 8.24361C19.7296 8.35613 19.7928 8.50874 19.7928 8.66787V20.6679C19.7928 20.9992 19.5241 21.2679 19.1928 21.2679H6.69277C6.3614 21.2679 6.09277 20.9992 6.09277 20.6679V4.16787ZM7.29277 4.76787V20.0679H18.5928V8.9164L14.4442 4.76787H7.29277Z" fill="#1F073B"/>
<path fill-rule="evenodd" clip-rule="evenodd" d="M8.59277 9.16787C8.59277 8.8365 8.8614 8.56787 9.19277 8.56787H12.6928C13.0241 8.56787 13.2928 8.8365 13.2928 9.16787C13.2928 9.49924 13.0241 9.76787 12.6928 9.76787H9.19277C8.8614 9.76787 8.59277 9.49924 8.59277 9.16787Z" fill="#1F073B"/>
<path fill-rule="evenodd" clip-rule="evenodd" d="M14.6928 3.56787C15.0241 3.56787 15.2928 3.8365 15.2928 4.16787V8.06787H19.1928C19.5241 8.06787 19.7928 8.3365 19.7928 8.66787C19.7928 8.99924 19.5241 9.26787 19.1928 9.26787H14.6928C14.3614 9.26787 14.0928 8.99924 14.0928 8.66787V4.16787C14.0928 3.8365 14.3614 3.56787 14.6928 3.56787Z" fill="#1F073B"/>
<path fill-rule="evenodd" clip-rule="evenodd" d="M8.59277 12.1679C8.59277 11.8365 8.8614 11.5679 9.19277 11.5679H16.6928C17.0241 11.5679 17.2928 11.8365 17.2928 12.1679C17.2928 12.4992 17.0241 12.7679 16.6928 12.7679H9.19277C8.8614 12.7679 8.59277 12.4992 8.59277 12.1679Z" fill="#1F073B"/>
<path fill-rule="evenodd" clip-rule="evenodd" d="M8.59277 15.1679C8.59277 14.8365 8.8614 14.5679 9.19277 14.5679H16.6928C17.0241 14.5679 17.2928 14.8365 17.2928 15.1679C17.2928 15.4992 17.0241 15.7679 16.6928 15.7679H9.19277C8.8614 15.7679 8.59277 15.4992 8.59277 15.1679Z" fill="#1F073B"/>
</svg>
