<svg width="25" height="25" viewBox="0 0 25 25" fill="none" xmlns="http://www.w3.org/2000/svg">
<g clip-path="url(#clip0_437_17930)">
<path d="M13.1514 3.29736C8.25377 3.29736 4.28027 7.2709 4.28027 12.1684C4.28027 17.066 8.25377 21.0395 13.1514 21.0395C18.0489 21.0395 22.0224 17.066 22.0224 12.1684C22.0224 7.27086 18.0489 3.29736 13.1514 3.29736ZM19.5536 17.2297C18.7549 16.7669 17.8545 16.4276 16.9582 16.1918C17.2284 15.0647 17.3821 13.8183 17.4059 12.5233H21.3049C21.2303 14.2362 20.6169 15.8856 19.5536 17.2297ZM6.74917 17.2297C5.68581 15.8856 5.07246 14.2362 4.9978 12.5233H8.89678C8.92056 13.8183 9.07431 15.0647 9.34449 16.1918C8.44155 16.4337 7.56428 16.7567 6.74917 17.2297ZM6.74913 7.10721C7.54494 7.56765 8.43762 7.90631 9.34449 8.14516C9.07428 9.27214 8.92056 10.5186 8.89678 11.8136H4.9978C5.07246 10.1006 5.68581 8.45132 6.74913 7.10721ZM13.5062 15.7212V12.5233H16.6962C16.6726 13.7652 16.5256 14.9566 16.268 16.0296C15.4248 15.8539 14.4869 15.743 13.5062 15.7212ZM10.0347 16.0296C9.77711 14.9567 9.63007 13.7652 9.60654 12.5233H12.7965V15.7212C11.8275 15.7428 10.8958 15.8505 10.0347 16.0296ZM12.7965 8.61572V11.8136H9.60654C9.63007 10.5717 9.77711 9.38026 10.0347 8.30732C10.8989 8.48631 11.8198 8.59393 12.7965 8.61572ZM13.5062 11.8136V8.61572C14.4602 8.59443 15.3873 8.49003 16.268 8.30732C16.5256 9.38026 16.6726 10.5717 16.6962 11.8136H13.5062ZM13.5062 7.90585V4.05201C14.2684 4.24228 15.0119 5.0357 15.5888 6.2944C15.7762 6.70325 15.9413 7.14819 16.0834 7.62173C15.2339 7.79496 14.3624 7.88658 13.5062 7.90585ZM12.7965 4.05201V7.90585C11.922 7.88616 11.0503 7.79135 10.2193 7.62173C10.3614 7.14819 10.5265 6.70325 10.7139 6.2944C11.2908 5.03567 12.0343 4.24224 12.7965 4.05201ZM12.7965 16.431V20.2849C12.0343 20.0946 11.2908 19.3012 10.7139 18.0425C10.5265 17.6336 10.3614 17.1887 10.2193 16.7152C11.0554 16.5454 11.9176 16.4508 12.7965 16.431ZM13.5062 20.2849V16.431C14.4262 16.4517 15.2815 16.5522 16.0834 16.7152C15.9413 17.1887 15.7762 17.6336 15.5888 18.0425C15.0119 19.3012 14.2684 20.0946 13.5062 20.2849ZM17.4059 11.8136C17.3821 10.5186 17.2284 9.27214 16.9582 8.14516C17.8562 7.90745 18.7534 7.57131 19.5536 7.10721C20.6169 8.45132 21.2303 10.1006 21.3049 11.8136H17.4059ZM19.0796 6.55983C18.3651 6.95807 17.5761 7.24996 16.7755 7.46077C16.4434 6.33805 15.9048 5.09003 15.0961 4.24224C16.6081 4.61291 17.9928 5.4112 19.0796 6.55983ZM11.2066 4.24224C10.3978 5.09003 9.85929 6.33809 9.5272 7.46077C8.73057 7.25113 7.94296 6.96048 7.22309 6.55983C8.30998 5.4112 9.69458 4.61291 11.2066 4.24224ZM7.22313 17.7771C7.94786 17.3744 8.7315 17.0847 9.52723 16.8761C9.85933 17.9987 10.3979 19.2469 11.2066 20.0946C9.69454 19.724 8.30998 18.9257 7.22313 17.7771ZM15.0961 20.0946C15.9039 19.2479 16.4427 18.001 16.7755 16.8761C17.5623 17.0826 18.3574 17.3751 19.0796 17.7771C17.9928 18.9257 16.6081 19.724 15.0961 20.0946Z" fill="#1F073B"/>
</g>
<defs>
<clipPath id="clip0_437_17930">
<rect width="18.168" height="18.168" fill="white" transform="translate(4.06738 3.08496)"/>
</clipPath>
</defs>
</svg>
