<svg width="25" height="25" viewBox="0 0 25 25" fill="none" xmlns="http://www.w3.org/2000/svg">
<path d="M4.87413 5.65283C3.87003 5.84938 3.52393 6.69111 3.57521 7.72085C3.7803 11.7244 9.57417 14.4846 9.5699 18.2917C9.5699 19.3214 8.85207 20.3127 7.84797 20.5092C6.84387 20.7058 5.99786 19.9666 5.93377 19.001C5.89532 18.531 6.03632 17.9071 6.03632 17.9071L8.51025 17.4286" stroke="#1F073B" stroke-width="0.854554" stroke-miterlimit="10"/>
<path d="M17.338 12.895C18.0601 13.7966 19.1411 15.3049 19.03 16.4542C18.9317 17.4797 18.3122 18.4753 17.3081 18.6718L7.84814 20.5048" stroke="#1F073B" stroke-width="0.854554" stroke-miterlimit="10"/>
<path d="M13.4971 6.5498C13.6893 7.70772 14.3516 8.79728 15.1549 9.85693" stroke="#1F073B" stroke-width="0.854554" stroke-miterlimit="10"/>
<path d="M12.1209 9.37451L7.4209 10.2846" stroke="#1F073B" stroke-width="0.854554" stroke-miterlimit="10" stroke-linecap="round"/>
<path d="M13.4027 10.7114L8.70264 11.6215" stroke="#1F073B" stroke-width="0.854554" stroke-miterlimit="10" stroke-linecap="round"/>
<path d="M12.1169 12.4336L9.98047 12.8481" stroke="#1F073B" stroke-width="0.854554" stroke-miterlimit="10" stroke-linecap="round"/>
<path d="M14.3339 3.8197L4.87402 5.65272C5.5833 5.51599 6.24131 5.91763 6.57031 6.456C6.83949 6.89182 6.85231 7.44728 6.76686 7.78056C6.75831 7.81901 6.78822 7.85747 6.83095 7.84892L16.0345 6.05863C16.2866 5.47327 16.2396 4.78535 15.8849 4.38798C15.5218 3.97352 14.9492 3.70434 14.3339 3.82398V3.8197Z" stroke="#1F073B" stroke-width="0.854554" stroke-miterlimit="10"/>
<path d="M21.2348 7.39617C21.6834 7.84481 21.7603 8.26782 21.7262 8.50282L15.9836 14.2411C14.9453 15.2794 13.4028 15.1897 13.4028 15.1897C13.4028 15.1897 13.3131 13.6472 14.3556 12.6089L20.0982 6.87062C20.3332 6.84071 20.7562 6.91335 21.2049 7.36199L21.2348 7.3919V7.39617Z" stroke="#1F073B" stroke-width="0.854554" stroke-miterlimit="10"/>
<path d="M19.1792 7.75928L20.8114 9.39147" stroke="#1F073B" stroke-width="0.854554" stroke-miterlimit="10"/>
</svg>
