<svg width="25" height="25" viewBox="0 0 25 25" fill="none" xmlns="http://www.w3.org/2000/svg">
<path d="M3.64355 20.2568H21.7426" stroke="#1F073B" stroke-width="0.908961" stroke-linecap="round" stroke-linejoin="round"/>
<path d="M4.87744 20.2577V9.08543L8.99087 6.38867V20.2577" stroke="#1F073B" stroke-width="0.908961" stroke-linecap="round" stroke-linejoin="round"/>
<path d="M18.0407 20.2573V12.167L13.9272 9.47021" stroke="#1F073B" stroke-width="0.908961" stroke-linecap="round" stroke-linejoin="round"/>
<path d="M7.75635 5.61767V4.07666H13.9265V20.2572" stroke="#1F073B" stroke-width="0.908961" stroke-linecap="round" stroke-linejoin="round"/>
<path d="M16.3945 9.4702V7.9292H20.508V20.2572" stroke="#1F073B" stroke-width="0.908961" stroke-linecap="round" stroke-linejoin="round"/>
<path d="M4.87744 10.627H6.52281" stroke="#1F073B" stroke-width="0.908961" stroke-linecap="round" stroke-linejoin="round"/>
<path d="M4.87744 12.5522H6.52281" stroke="#1F073B" stroke-width="0.908961" stroke-linecap="round" stroke-linejoin="round"/>
<path d="M4.87744 14.478H6.52281" stroke="#1F073B" stroke-width="0.908961" stroke-linecap="round" stroke-linejoin="round"/>
<path d="M4.87744 16.4048H6.52281" stroke="#1F073B" stroke-width="0.908961" stroke-linecap="round" stroke-linejoin="round"/>
<path d="M4.87744 18.3315H6.52281" stroke="#1F073B" stroke-width="0.908961" stroke-linecap="round" stroke-linejoin="round"/>
<path d="M11.0479 10.2402H11.8705" stroke="#1F073B" stroke-width="0.908961" stroke-linecap="round" stroke-linejoin="round"/>
<path d="M11.0479 12.167H11.8705" stroke="#1F073B" stroke-width="0.908961" stroke-linecap="round" stroke-linejoin="round"/>
<path d="M11.0479 6.38867H11.8705" stroke="#1F073B" stroke-width="0.908961" stroke-linecap="round" stroke-linejoin="round"/>
<path d="M11.0479 8.31445H11.8705" stroke="#1F073B" stroke-width="0.908961" stroke-linecap="round" stroke-linejoin="round"/>
<path d="M11.0479 14.0938H11.8705" stroke="#1F073B" stroke-width="0.908961" stroke-linecap="round" stroke-linejoin="round"/>
<path d="M11.0479 16.019H11.8705" stroke="#1F073B" stroke-width="0.908961" stroke-linecap="round" stroke-linejoin="round"/>
<path d="M11.0479 17.9458H11.8705" stroke="#1F073B" stroke-width="0.908961" stroke-linecap="round" stroke-linejoin="round"/>
<path d="M15.7783 12.937H16.1902" stroke="#1F073B" stroke-width="0.908961" stroke-linecap="round" stroke-linejoin="round"/>
<path d="M15.7783 14.8638H16.1902" stroke="#1F073B" stroke-width="0.908961" stroke-linecap="round" stroke-linejoin="round"/>
<path d="M15.7783 16.79H16.1902" stroke="#1F073B" stroke-width="0.908961" stroke-linecap="round" stroke-linejoin="round"/>
<path d="M15.7783 18.7158H16.1902" stroke="#1F073B" stroke-width="0.908961" stroke-linecap="round" stroke-linejoin="round"/>
<path d="M17.6289 4.07666V7.92917" stroke="#1F073B" stroke-width="0.908961" stroke-linecap="round" stroke-linejoin="round"/>
<path d="M19.2744 6.38867V7.92968" stroke="#1F073B" stroke-width="0.908961" stroke-linecap="round" stroke-linejoin="round"/>
</svg>
